<svg width="38" height="38" viewBox="0 0 38 38" fill="none" xmlns="http://www.w3.org/2000/svg">
<path d="M30.25 0.25C26.1144 0.25 22.75 3.61438 22.75 7.75C22.75 11.8856 26.1144 15.25 30.25 15.25C34.3856 15.25 37.75 11.8856 37.75 7.75C37.75 3.61438 34.3856 0.25 30.25 0.25ZM30.25 13.75C26.9417 13.75 24.25 11.0583 24.25 7.75C24.25 4.44165 26.9417 1.75 30.25 1.75C33.5583 1.75 36.25 4.44165 36.25 7.75C36.25 11.0583 33.5583 13.75 30.25 13.75Z" fill="#7C8C9A"/>
<path d="M29.782 6.25H31.75C32.1642 6.25 32.5 5.91419 32.5 5.5C32.5 5.08581 32.1642 4.75 31.75 4.75H31V4C31 3.58581 30.6642 3.25 30.25 3.25C29.8358 3.25 29.5 3.58581 29.5 4V4.77851C28.6518 4.91479 28 5.64598 28 6.53198C28 7.32482 28.5101 8.01111 29.27 8.23925L30.7989 8.69738C30.9191 8.73364 31 8.8424 31 8.96801C31 9.12365 30.8737 9.25 30.718 9.25H28.75C28.3358 9.25 28 9.58581 28 10C28 10.4142 28.3358 10.75 28.75 10.75H29.5V11.5C29.5 11.9142 29.8358 12.25 30.25 12.25C30.6642 12.25 31 11.9142 31 11.5V10.7215C31.8482 10.5852 32.5 9.85402 32.5 8.96802C32.5 8.17517 31.9899 7.48889 31.23 7.26075L29.7011 6.80262C29.5809 6.76636 29.5 6.6576 29.5 6.53199C29.5 6.37635 29.6263 6.25 29.782 6.25Z" fill="#7C8C9A"/>
<path d="M30.0841 16.7848C29.6893 16.9097 29.47 17.3308 29.5949 17.726C30.0295 19.1022 30.25 20.5403 30.25 22C30.25 29.8574 23.8574 36.25 16 36.25C8.14258 36.25 1.75 29.8574 1.75 22C1.75 14.792 7.09073 8.81018 14.1079 7.88335L13.9236 8.11365C13.6647 8.43738 13.717 8.90907 14.0404 9.16799C14.3602 9.42344 14.8392 9.37057 15.0947 9.05115L16.42 7.39478C16.5446 7.23914 16.6017 7.04102 16.5797 6.84327C16.5577 6.64551 16.4581 6.46461 16.3028 6.34046L14.6461 5.01551C14.3228 4.7566 13.8503 4.8086 13.5922 5.13269C13.3333 5.45606 13.386 5.92811 13.7094 6.18665L13.9655 6.39154C6.18216 7.39198 0.25 14.0142 0.25 22C0.25 30.6843 7.31531 37.75 16 37.75C24.6847 37.75 31.75 30.6843 31.75 22C31.75 20.3865 31.5061 18.7968 31.0253 17.274C30.9 16.8793 30.4774 16.6592 30.0841 16.7848Z" fill="#7C8C9A"/>
<path d="M20.6696 11.7629C19.2003 11.0906 17.6293 10.75 16 10.75C9.79675 10.75 4.75 15.7968 4.75 22C4.75 28.2036 9.79675 33.25 16 33.25C22.2033 33.25 27.25 28.2036 27.25 22C27.25 19.8423 26.6329 17.7417 25.4658 15.9246C25.2421 15.5763 24.7781 15.4756 24.4294 15.699C24.0812 15.9227 23.9801 16.3867 24.2039 16.7354C25.2153 18.3101 25.75 20.1309 25.75 22C25.75 27.376 21.3763 31.75 16 31.75C10.6237 31.75 6.25 27.376 6.25 22C6.25 16.6237 10.6237 12.25 16 12.25C17.4125 12.25 18.7733 12.5452 20.0455 13.1267C20.4216 13.2999 20.8673 13.1333 21.0394 12.7568C21.2119 12.38 21.046 11.9351 20.6696 11.7629Z" fill="#7C8C9A"/>
<path d="M7.75 22C7.75 26.5491 11.4509 30.25 16 30.25C20.5491 30.25 24.25 26.5491 24.25 22C24.25 17.4509 20.5491 13.75 16 13.75C11.4509 13.75 7.75 17.4509 7.75 22ZM22.75 22C22.75 25.7222 19.7218 28.75 16 28.75C12.2782 28.75 9.25 25.7222 9.25 22C9.25 18.2782 12.2782 15.25 16 15.25C19.7218 15.25 22.75 18.2782 22.75 22Z" fill="#7C8C9A"/>
<path d="M20.8622 7.11133L19.6647 5.36011C19.4314 5.01843 18.9641 4.93164 18.6221 5.16419C18.28 5.3982 18.1925 5.86475 18.4261 6.20679L19.2003 7.33875L18.0684 8.11256C17.7263 8.34651 17.6388 8.81303 17.8724 9.15503C18.0931 9.47828 18.5927 9.57058 18.915 9.35109L20.6663 8.15394C20.8303 8.04152 20.9435 7.86867 20.9801 7.67311C21.0167 7.47755 20.9742 7.27539 20.8622 7.11133Z" fill="#7C8C9A"/>
<path d="M15.25 17.5V19.8882C14.3789 20.1988 13.75 21.0235 13.75 22C13.75 23.2407 14.7593 24.25 16 24.25C16.3463 24.25 16.6707 24.1649 16.964 24.0246L18.0947 25.1553C18.3877 25.4482 18.8623 25.4482 19.1553 25.1553C19.4482 24.8623 19.4482 24.3877 19.1553 24.0947L18.0245 22.964C18.1649 22.6707 18.25 22.3463 18.25 22C18.25 21.0235 17.6211 20.1988 16.75 19.8882V17.5C16.75 17.0858 16.4142 16.75 16 16.75C15.5858 16.75 15.25 17.0858 15.25 17.5ZM16.75 22C16.75 22.4138 16.4135 22.75 16 22.75C15.5865 22.75 15.25 22.4138 15.25 22C15.25 21.5862 15.5865 21.25 16 21.25C16.4135 21.25 16.75 21.5862 16.75 22Z" fill="#7C8C9A"/>
<path d="M22.8943 14.795C23.3085 14.795 23.6443 14.4592 23.6443 14.045C23.6443 13.6308 23.3085 13.295 22.8943 13.295C22.4801 13.295 22.1443 13.6308 22.1443 14.045C22.1443 14.4592 22.4801 14.795 22.8943 14.795Z" fill="#7C8C9A"/>
</svg>
