<svg width="38" height="38" viewBox="0 0 38 38" fill="none" xmlns="http://www.w3.org/2000/svg">
<path d="M19 8.5C19.4138 8.5 19.75 8.83655 19.75 9.25C19.75 9.66419 20.0855 10 20.5 10C20.9145 10 21.25 9.66419 21.25 9.25C21.25 8.27354 20.6211 7.44879 19.75 7.1382V7C19.75 6.58581 19.4145 6.25 19 6.25C18.5855 6.25 18.25 6.58581 18.25 7V7.1382C17.3789 7.44879 16.75 8.27354 16.75 9.25C16.75 10.4907 17.7593 11.5 19 11.5C19.4138 11.5 19.75 11.8365 19.75 12.25C19.75 12.6635 19.4138 13 19 13C18.5862 13 18.25 12.6635 18.25 12.25C18.25 11.8358 17.9145 11.5 17.5 11.5C17.0855 11.5 16.75 11.8358 16.75 12.25C16.75 13.2265 17.3789 14.0512 18.25 14.3618V14.5C18.25 14.9142 18.5855 15.25 19 15.25C19.4145 15.25 19.75 14.9142 19.75 14.5V14.3618C20.6211 14.0512 21.25 13.2265 21.25 12.25C21.25 11.0093 20.2407 10 19 10C18.5862 10 18.25 9.66345 18.25 9.25C18.25 8.83655 18.5862 8.5 19 8.5Z" fill="#7C8C9A"/>
<path fill-rule="evenodd" clip-rule="evenodd" d="M19 3.25C14.8647 3.25 11.5 6.61438 11.5 10.75C11.5 14.8856 14.8647 18.25 19 18.25C23.1353 18.25 26.5 14.8856 26.5 10.75C26.5 6.61438 23.1353 3.25 19 3.25ZM19 16.75C15.6917 16.75 13 14.0583 13 10.75C13 7.44165 15.6917 4.75 19 4.75C22.3083 4.75 25 7.44165 25 10.75C25 14.0583 22.3083 16.75 19 16.75Z" fill="#7C8C9A"/>
<path fill-rule="evenodd" clip-rule="evenodd" d="M36.25 25.75C36.25 26.3725 36.0625 26.95 35.7325 27.43C36.9025 27.8425 37.75 28.945 37.75 30.25C37.75 31.555 36.9025 32.6575 35.7325 33.07C36.0625 33.55 36.25 34.1275 36.25 34.75C36.25 36.4075 34.9075 37.75 33.25 37.75H22.75C21.0925 37.75 19.75 36.4075 19.75 34.75C19.75 33.445 20.5975 32.3425 21.7675 31.93C21.4375 31.45 21.25 30.8725 21.25 30.25C21.25 29.6275 21.4375 29.05 21.7675 28.57C20.5975 28.1575 19.75 27.055 19.75 25.75C19.75 24.445 20.5975 23.335 21.7675 22.93C21.43 22.435 21.25 21.8575 21.25 21.25C21.25 21.1938 21.257 21.1342 21.2638 21.0758C21.267 21.0484 21.2701 21.0213 21.2725 20.995C20.5375 21.16 19.78 21.25 19 21.25C18.22 21.25 17.4625 21.16 16.7275 20.995C16.7299 21.0213 16.733 21.0484 16.7362 21.0758C16.743 21.1342 16.75 21.1938 16.75 21.25C16.75 21.8575 16.57 22.435 16.2325 22.93C17.4025 23.335 18.25 24.445 18.25 25.75C18.25 27.055 17.4025 28.1575 16.2325 28.57C16.5625 29.05 16.75 29.6275 16.75 30.25C16.75 30.8725 16.5625 31.45 16.2325 31.93C17.4025 32.3425 18.25 33.445 18.25 34.75C18.25 36.4075 16.9075 37.75 15.25 37.75H4.75C3.09248 37.75 1.75 36.4075 1.75 34.75C1.75 34.1275 1.9375 33.55 2.2675 33.07C1.0975 32.6575 0.25 31.555 0.25 30.25C0.25 28.945 1.0975 27.8425 2.2675 27.43C1.9375 26.95 1.75 26.3725 1.75 25.75C1.75 25.1275 1.9375 24.55 2.2675 24.07C1.0975 23.6575 0.25 22.555 0.25 21.25C0.25 20.4475 0.564985 19.6975 1.12749 19.1275C1.69749 18.565 2.44749 18.25 3.25 18.25H11.665C9.715 16.345 8.5 13.69 8.5 10.75C8.5 4.95998 13.21 0.25 19 0.25C24.79 0.25 29.5 4.95998 29.5 10.75C29.5 13.69 28.285 16.345 26.335 18.25H34.75C35.5525 18.25 36.3025 18.565 36.8725 19.1275C37.435 19.6975 37.75 20.4475 37.75 21.25C37.75 22.555 36.9025 23.6575 35.7325 24.07C36.0625 24.55 36.25 25.1275 36.25 25.75ZM35.8075 20.1925C35.5225 19.9075 35.1475 19.75 34.75 19.75H24.3775C23.935 20.02 23.47 20.26 22.9825 20.4625C22.8325 20.695 22.75 20.965 22.75 21.25C22.75 21.6475 22.9075 22.0225 23.1925 22.3075C23.4775 22.5925 23.8525 22.75 24.25 22.75H34.75C35.575 22.75 36.25 22.075 36.25 21.25C36.25 20.8525 36.0925 20.4775 35.8075 20.1925ZM2.19252 20.1925C1.90752 20.4775 1.75 20.8525 1.75 21.25C1.75 22.075 2.42502 22.75 3.25001 22.75H13.75C14.1475 22.75 14.5225 22.5925 14.8075 22.3075C15.0925 22.0225 15.25 21.6475 15.25 21.25C15.25 20.965 15.1675 20.695 15.0175 20.4625C14.53 20.26 14.065 20.02 13.6225 19.75H3.25C2.85248 19.75 2.47748 19.9075 2.19252 20.1925ZM3.25 28.75C2.42501 28.75 1.75 29.425 1.75 30.25C1.75 31.075 2.42501 31.75 3.25 31.75H13.75C14.575 31.75 15.25 31.075 15.25 30.25C15.25 29.425 14.575 28.75 13.75 28.75H3.25ZM15.25 36.25C16.075 36.25 16.75 35.575 16.75 34.75C16.75 33.925 16.075 33.25 15.25 33.25H4.75C3.92501 33.25 3.25 33.925 3.25 34.75C3.25 35.575 3.92501 36.25 4.75 36.25H15.25ZM15.25 27.25C16.075 27.25 16.75 26.575 16.75 25.75C16.75 24.925 16.075 24.25 15.25 24.25H4.75C3.92501 24.25 3.25 24.925 3.25 25.75C3.25 26.575 3.92501 27.25 4.75 27.25H15.25ZM10 10.75C10 15.715 14.035 19.75 19 19.75C23.965 19.75 28 15.715 28 10.75C28 5.785 23.965 1.75 19 1.75C14.035 1.75 10 5.785 10 10.75ZM22.75 24.25C21.925 24.25 21.25 24.925 21.25 25.75C21.25 26.575 21.925 27.25 22.75 27.25H33.25C34.075 27.25 34.75 26.575 34.75 25.75C34.75 24.925 34.075 24.25 33.25 24.25H22.75ZM21.25 34.75C21.25 35.575 21.925 36.25 22.75 36.25H33.25C34.075 36.25 34.75 35.575 34.75 34.75C34.75 33.925 34.075 33.25 33.25 33.25H22.75C21.925 33.25 21.25 33.925 21.25 34.75ZM22.75 30.25C22.75 31.075 23.425 31.75 24.25 31.75H34.75C35.575 31.75 36.25 31.075 36.25 30.25C36.25 29.425 35.575 28.75 34.75 28.75H24.25C23.425 28.75 22.75 29.425 22.75 30.25Z" fill="#7C8C9A"/>
</svg>
