<svg width="24" height="24" viewBox="0 0 24 24" fill="none" xmlns="http://www.w3.org/2000/svg">
<path d="M12.0001 22.2034C10.585 22.2034 9.25704 21.9359 8.01638 21.4009C6.77588 20.8659 5.69662 20.1395 4.77863 19.2216C3.86079 18.3036 3.13437 17.2244 2.59937 15.9839C2.06437 14.7432 1.79688 13.4153 1.79688 12.0001C1.79688 10.585 2.06437 9.25704 2.59937 8.01638C3.13437 6.77588 3.86079 5.69663 4.77863 4.77863C5.69662 3.86079 6.77588 3.13437 8.01638 2.59937C9.25704 2.06437 10.585 1.79688 12.0001 1.79688C12.7603 1.79688 13.5046 1.87954 14.2331 2.04487C14.9615 2.21037 15.6637 2.45212 16.3399 2.77012C16.6217 2.90346 16.8061 3.12146 16.8931 3.42413C16.98 3.72663 16.9321 4.01046 16.7496 4.27563C16.567 4.54479 16.3182 4.72071 16.0034 4.80338C15.6885 4.88604 15.3779 4.86071 15.0714 4.72738C14.5859 4.51721 14.0835 4.35537 13.5644 4.24187C13.045 4.12854 12.5236 4.07188 12.0001 4.07188C9.80346 4.07188 7.93288 4.84304 6.38838 6.38537C4.84404 7.92787 4.07187 9.79946 4.07187 12.0001C4.07187 14.2008 4.84404 16.0724 6.38838 17.6149C7.93288 19.1572 9.80346 19.9284 12.0001 19.9284C14.193 19.9284 16.0625 19.1582 17.6089 17.6179C19.1552 16.0774 19.9284 14.2128 19.9284 12.0241C19.9284 11.9226 19.9252 11.8243 19.9189 11.7291C19.9125 11.6341 19.903 11.5359 19.8904 11.4344C19.865 11.1072 19.9351 10.8015 20.1006 10.5171C20.2663 10.233 20.5087 10.0452 20.8279 9.95388C21.1344 9.86654 21.4182 9.90154 21.6794 10.0589C21.9407 10.216 22.088 10.4479 22.1214 10.7544C22.1507 10.9599 22.1717 11.1644 22.1844 11.3679C22.197 11.5712 22.2034 11.782 22.2034 12.0001C22.2034 13.4153 21.9359 14.7432 21.4009 15.9839C20.8659 17.2244 20.1395 18.3036 19.2216 19.2216C18.3036 20.1395 17.2244 20.8659 15.9839 21.4009C14.7432 21.9359 13.4153 22.2034 12.0001 22.2034ZM10.5821 13.5909L19.8524 4.29588C20.0595 4.08854 20.3175 3.98171 20.6264 3.97538C20.9354 3.96904 21.1998 4.07588 21.4196 4.29588C21.627 4.50304 21.7306 4.76421 21.7306 5.07937C21.7306 5.39471 21.627 5.65596 21.4196 5.86313L11.3839 15.9181C11.1559 16.146 10.8886 16.2599 10.5821 16.2599C10.2756 16.2599 10.0085 16.146 9.78063 15.9181L7.02012 13.1576C6.81296 12.9505 6.70937 12.6903 6.70937 12.3771C6.70937 12.0638 6.81296 11.8035 7.02012 11.5964C7.22746 11.389 7.48871 11.2854 7.80387 11.2854C8.11921 11.2854 8.38046 11.389 8.58763 11.5964L10.5821 13.5909Z" fill="#54616C"/>
</svg>
