<svg width="32" height="38" viewBox="0 0 32 38" fill="none" xmlns="http://www.w3.org/2000/svg">
<path d="M6.25 22C6.25 22.4145 6.58545 22.75 7 22.75H13C13.4145 22.75 13.75 22.4145 13.75 22C13.75 21.5855 13.4145 21.25 13 21.25H7C6.58545 21.25 6.25 21.5855 6.25 22Z" fill="#7C8C9A"/>
<path d="M13 24.25H28C28.4145 24.25 28.75 24.5855 28.75 25C28.75 25.4145 28.4145 25.75 28 25.75H13C12.5855 25.75 12.25 25.4145 12.25 25C12.25 24.5855 12.5855 24.25 13 24.25Z" fill="#7C8C9A"/>
<path d="M6.25 25C6.25 25.4145 6.58545 25.75 7 25.75H10C10.4145 25.75 10.75 25.4145 10.75 25C10.75 24.5855 10.4145 24.25 10 24.25H7C6.58545 24.25 6.25 24.5855 6.25 25Z" fill="#7C8C9A"/>
<path d="M20.5 27.25H28C28.4145 27.25 28.75 27.5855 28.75 28C28.75 28.4145 28.4145 28.75 28 28.75H20.5C20.0855 28.75 19.75 28.4145 19.75 28C19.75 27.5855 20.0855 27.25 20.5 27.25Z" fill="#7C8C9A"/>
<path d="M17.5 28.75C17.9145 28.75 18.25 28.4145 18.25 28C18.25 27.5855 17.9145 27.25 17.5 27.25H7C6.58545 27.25 6.25 27.5855 6.25 28C6.25 28.4145 6.58545 28.75 7 28.75H17.5Z" fill="#7C8C9A"/>
<path d="M22 30.25C22.4145 30.25 22.75 30.5855 22.75 31C22.75 31.4145 22.4145 31.75 22 31.75H7C6.58545 31.75 6.25 31.4145 6.25 31C6.25 30.5855 6.58545 30.25 7 30.25H22Z" fill="#7C8C9A"/>
<path d="M28 33.25H20.5C20.0855 33.25 19.75 33.5855 19.75 34C19.75 34.4145 20.0855 34.75 20.5 34.75H28C28.4145 34.75 28.75 34.4145 28.75 34C28.75 33.5855 28.4145 33.25 28 33.25Z" fill="#7C8C9A"/>
<path fill-rule="evenodd" clip-rule="evenodd" d="M21.25 12.25C19.1824 12.25 17.5 13.9324 17.5 16C17.5 18.0676 19.1824 19.75 21.25 19.75C23.3176 19.75 25 18.0676 25 16C25 13.9324 23.3176 12.25 21.25 12.25ZM21.25 18.25C20.0093 18.25 19 17.2407 19 16C19 14.7593 20.0093 13.75 21.25 13.75C22.4907 13.75 23.5 14.7593 23.5 16C23.5 17.2407 22.4907 18.25 21.25 18.25Z" fill="#7C8C9A"/>
<path fill-rule="evenodd" clip-rule="evenodd" d="M26.5 7C26.5 8.51332 25.9159 9.47467 25.3924 10.0325C26.542 11.1841 28.75 13.8672 28.75 17.5C28.75 20.738 25.876 22.75 21.25 22.75C16.624 22.75 13.75 20.738 13.75 17.5C13.75 13.8672 15.958 11.1841 17.1076 10.0325C16.5841 9.47467 16 8.51332 16 7C16 6.58545 16.3355 6.25 16.75 6.25H25.75C26.1645 6.25 26.5 6.58545 26.5 7ZM24.0325 9.25C24.2646 9.07788 24.7429 8.62891 24.926 7.75H17.574C17.7571 8.62891 18.2354 9.07788 18.4675 9.25H24.0325ZM15.25 17.5C15.25 20.9797 19.8423 21.25 21.25 21.25C22.6577 21.25 27.25 20.9797 27.25 17.5C27.25 13.9626 24.688 11.3987 23.9698 10.75H18.5312C17.8132 11.4033 15.25 13.9796 15.25 17.5Z" fill="#7C8C9A"/>
<path d="M7.75 16.75H9.71801C9.87329 16.75 10 16.6233 10 16.468C10 16.3442 9.91724 16.2329 9.79859 16.1978L8.27002 15.7393C7.5105 15.5107 7 14.8252 7 14.032C7 13.1457 7.65158 12.4147 8.5 12.2785V11.5C8.5 11.0855 8.83545 10.75 9.25 10.75C9.66455 10.75 10 11.0855 10 11.5V12.25H10.75C11.1645 12.25 11.5 12.5855 11.5 13C11.5 13.4145 11.1645 13.75 10.75 13.75H8.78199C8.62671 13.75 8.5 13.8767 8.5 14.032C8.5 14.1558 8.58276 14.2671 8.70141 14.3022L10.23 14.7607C10.9895 14.9893 11.5 15.6748 11.5 16.468C11.5 17.3544 10.8484 18.0853 10 18.2215V19C10 19.4145 9.66455 19.75 9.25 19.75C8.83545 19.75 8.5 19.4145 8.5 19V18.25H7.75C7.33545 18.25 7 17.9145 7 17.5C7 17.0855 7.33545 16.75 7.75 16.75Z" fill="#7C8C9A"/>
<path fill-rule="evenodd" clip-rule="evenodd" d="M29.5 3.25H28.75V2.5C28.75 1.25928 27.7407 0.25 26.5 0.25H8.37109C7.7705 0.25 7.20507 0.484375 6.78027 0.909183L0.909183 6.78027C0.484368 7.20508 0.25 7.7705 0.25 8.37109V32.5C0.25 33.7407 1.25928 34.75 2.5 34.75H3.25V35.5C3.25 36.7407 4.25927 37.75 5.5 37.75H29.5C30.7407 37.75 31.75 36.7407 31.75 35.5V5.5C31.75 4.25928 30.7407 3.25 29.5 3.25ZM27.25 2.5V3.25H9.25V1.75H26.5C26.9138 1.75 27.25 2.08618 27.25 2.5ZM7.75 2.06054V7C7.75 7.41382 7.41382 7.75 7 7.75H2.06054L7.75 2.06054ZM2.5 33.25C2.08618 33.25 1.75 32.9138 1.75 32.5V9.25H3.25V33.25H2.5ZM30.25 35.5C30.25 35.9138 29.9138 36.25 29.5 36.25H5.5C5.08618 36.25 4.75 35.9138 4.75 35.5V9.25H7C8.24073 9.25 9.25 8.24073 9.25 7V4.75H29.5C29.9138 4.75 30.25 5.08618 30.25 5.5V35.5Z" fill="#7C8C9A"/>
</svg>
