<svg width="86" height="98" viewBox="0 0 86 98" fill="none" xmlns="http://www.w3.org/2000/svg">
<path d="M66.1437 15.0585C65.0755 15.0585 64.2086 15.9255 64.2086 16.9936V29.5717C64.2086 30.6398 65.0755 31.5067 66.1437 31.5067C67.2118 31.5067 68.0787 30.6398 68.0787 29.5717V16.9936C68.0787 15.9255 67.2118 15.0585 66.1437 15.0585Z" fill="#7C8C9A"/>
<path d="M64.2086 10.2208C64.2086 9.15266 65.0755 8.28574 66.1436 8.28574C67.2118 8.28574 68.0787 9.15266 68.0787 10.2208C68.0787 11.289 67.2118 12.1559 66.1436 12.1559C65.0755 12.1559 64.2086 11.289 64.2086 10.2208Z" fill="#7C8C9A"/>
<path fill-rule="evenodd" clip-rule="evenodd" d="M85.4945 19.8962C85.4945 9.22619 76.8138 0.54541 66.1437 0.54541C59.8315 0.54541 54.2352 3.59704 50.6998 8.28574H6.15614C2.95551 8.28574 0.350891 10.8904 0.350891 14.091V83.754C0.350891 86.9546 2.95551 89.5592 6.15614 89.5592H16.2592C21.1453 94.3389 27.8213 97.2995 35.1824 97.2995H68.0788C71.2794 97.2995 73.884 94.6949 73.884 91.4943V37.6197C80.7091 34.628 85.4945 27.8146 85.4945 19.8962ZM66.1437 35.3769C57.6081 35.3769 50.663 28.4319 50.663 19.8962C50.663 11.3606 57.6081 4.41558 66.1437 4.41558C74.6794 4.41558 81.6244 11.3606 81.6244 19.8962C81.6244 28.4319 74.6794 35.3769 66.1437 35.3769ZM70.0139 91.4943C70.0139 92.5605 69.145 93.4294 68.0788 93.4294H39.0525C35.9042 93.4294 33.1293 91.8949 31.3625 89.5592H64.2086C65.2768 89.5592 66.1437 88.6923 66.1437 87.6241V68.2733C66.1437 67.2051 65.2768 66.3382 64.2086 66.3382H17.7666C16.6985 66.3382 15.8316 67.2051 15.8316 68.2733V74.0282C13.4959 72.2615 11.9614 69.4866 11.9614 66.3382V21.8313C11.9614 20.7651 12.8302 19.8962 13.8965 19.8962H46.7929C46.7929 30.5663 55.4737 39.2471 66.1437 39.2471C67.4692 39.2471 68.7638 39.1116 70.0139 38.8562V91.4943ZM29.3771 83.754V81.8189C29.3771 78.6183 26.7725 76.0136 23.5719 76.0136H21.6368C20.975 76.0136 20.3268 75.9459 19.7017 75.8182V70.2084H62.2735V85.689H29.5726C29.4449 85.064 29.3771 84.4158 29.3771 83.754ZM12.8941 76.6677C15.2549 78.6686 18.3046 79.8838 21.6368 79.8838H23.5719C24.6381 79.8838 25.507 80.7526 25.507 81.8189V83.754C25.507 87.0862 26.7222 90.1359 28.7231 92.4967C21.1085 90.2849 15.1059 84.2822 12.8941 76.6677ZM4.22106 83.754V14.091C4.22106 13.0248 5.08991 12.1559 6.15614 12.1559H48.4203C47.8804 13.3866 47.4566 14.6793 47.1838 16.0261H13.8965C10.6958 16.0261 8.09122 18.6307 8.09122 21.8313V70.2084C8.09122 75.9633 9.90827 81.2964 12.9812 85.689H6.15614C5.08991 85.689 4.22106 84.8202 4.22106 83.754Z" fill="#7C8C9A"/>
</svg>
