<svg width="50" height="50" viewBox="0 0 50 50" fill="none" xmlns="http://www.w3.org/2000/svg">
<path d="M9 12C8.44873 12 8 11.5518 8 11C8 10.4473 7.55225 10 7 10C6.44775 10 6 10.4473 6 11C6 12.3019 6.8385 13.4016 8 13.8157V14C8 14.5527 8.44775 15 9 15C9.55225 15 10 14.5527 10 14V13.8157C11.1615 13.4016 12 12.3019 12 11C12 9.3457 10.6543 8 9 8C8.44873 8 8 7.55176 8 7C8 6.44824 8.44873 6 9 6C9.55127 6 10 6.44824 10 7C10 7.55273 10.4478 8 11 8C11.5522 8 12 7.55273 12 7C12 5.69806 11.1615 4.59839 10 4.18427V4C10 3.44727 9.55225 3 9 3C8.44775 3 8 3.44727 8 4V4.18427C6.8385 4.59839 6 5.69806 6 7C6 8.6543 7.3457 10 9 10C9.55127 10 10 10.4482 10 11C10 11.5518 9.55127 12 9 12Z" fill="#7C8C9A"/>
<path fill-rule="evenodd" clip-rule="evenodd" d="M18 9C18 13.9629 13.9624 18 9 18C4.0376 18 0 13.9629 0 9C0 4.03711 4.0376 0 9 0C13.9624 0 18 4.03711 18 9ZM16 9C16 5.14062 12.8599 2 9 2C5.14014 2 2 5.14062 2 9C2 12.8594 5.14014 16 9 16C12.8599 16 16 12.8594 16 9Z" fill="#7C8C9A"/>
<path fill-rule="evenodd" clip-rule="evenodd" d="M49 44H48V30C48 29.45 47.55 29 47 29C46.45 29 46 29.45 46 30V44H44V21C44 20.45 43.55 20 43 20H39C38.45 20 38 20.45 38 21V44H36V18H46V26C46 26.55 46.45 27 47 27C47.55 27 48 26.55 48 26V17C48 16.45 47.55 16 47 16H35C34.45 16 34 16.45 34 17V44H32V23C32 22.45 31.55 22 31 22H19C18.45 22 18 22.45 18 23V44H16V28C16 27.45 15.55 27 15 27H3C2.45001 27 2 27.45 2 28V44H1C0.45001 44 0 44.45 0 45V49C0 49.55 0.45001 50 1 50H10C10.55 50 11 49.55 11 49C11 48.45 10.55 48 10 48H2V46H48V48H14C13.45 48 13 48.45 13 49C13 49.55 13.45 50 14 50H49C49.55 50 50 49.55 50 49V45C50 44.45 49.55 44 49 44ZM8 44V33H10V44H8ZM14 44H12V32C12 31.45 11.55 31 11 31H7C6.45001 31 6 31.45 6 32V44H4V29H14V44ZM26 44H24V28H26V44ZM30 44H28V27C28 26.45 27.55 26 27 26H23C22.45 26 22 26.45 22 27V44H20V24H30V44ZM42 44H40V22H42V44Z" fill="#7C8C9A"/>
<path fill-rule="evenodd" clip-rule="evenodd" d="M43 7H47C47.5522 7 48 6.55273 48 6V2C48 1.44727 47.5522 1 47 1H43C42.4478 1 42 1.44727 42 2V6C42 6.55273 42.4478 7 43 7ZM44 3H46V5H44V3Z" fill="#7C8C9A"/>
<path d="M39 3H28C27.4478 3 27 2.55273 27 2C27 1.44727 27.4478 1 28 1H39C39.5522 1 40 1.44727 40 2C40 2.55273 39.5522 3 39 3Z" fill="#7C8C9A"/>
<path d="M39 5H32C31.4478 5 31 5.44727 31 6C31 6.55273 31.4478 7 32 7H39C39.5522 7 40 6.55273 40 6C40 5.44727 39.5522 5 39 5Z" fill="#7C8C9A"/>
<path fill-rule="evenodd" clip-rule="evenodd" d="M16.4492 16.9229C16.5786 16.5049 16.9648 16.2197 17.4023 16.2188C20.3652 16.2129 23.1694 15.0742 25.2988 13.0117L26.8638 11.4941L26.1914 10.6016C25.9697 10.3066 25.9277 9.91406 26.083 9.5791C26.2378 9.24511 26.5645 9.02246 26.9326 9.00195L34.1318 8.58789C34.4722 8.57714 34.7871 8.71679 34.9883 8.98437C35.1895 9.25195 35.2437 9.60156 35.1333 9.91699L32.7466 16.7217C32.6245 17.0693 32.3208 17.3223 31.9561 17.3789C31.5918 17.4336 31.2256 17.2861 31.0039 16.9922L30.4024 16.1934L28.2651 17.8027C26.5254 19.1133 24.4565 19.7715 22.3853 19.7725C20.4502 19.7725 18.5127 19.1973 16.8369 18.042C16.4766 17.7939 16.3193 17.3398 16.4492 16.9229ZM28.9922 10.9961C29.2954 11.3984 29.2515 11.9648 28.8896 12.3154L26.6909 14.4473C25.1143 15.9746 23.2231 17.0713 21.1694 17.6758C23.2056 17.999 25.3364 17.5059 27.062 16.2051L29.9981 13.9941C30.4404 13.6621 31.0664 13.752 31.3984 14.1914L31.4776 14.2969L32.7495 10.6709L28.9131 10.8906L28.9922 10.9961Z" fill="#7C8C9A"/>
</svg>
