<svg width="46" height="50" viewBox="0 0 46 50" fill="none" xmlns="http://www.w3.org/2000/svg">
<path d="M30.0001 18.25C30.5523 18.25 31.0001 17.8023 31.0001 17.25C31.0001 16.6977 30.5523 16.25 30.0001 16.25C29.4478 16.25 29.0001 16.6977 29.0001 17.25C29.0001 17.8023 29.4478 18.25 30.0001 18.25Z" fill="#7C8C9A"/>
<path d="M27.0001 17.25C27.0001 17.8023 26.5523 18.25 26.0001 18.25C25.4478 18.25 25.0001 17.8023 25.0001 17.25C25.0001 16.6977 25.4478 16.25 26.0001 16.25C26.5523 16.25 27.0001 16.6977 27.0001 17.25Z" fill="#7C8C9A"/>
<path d="M22.0001 18.25C22.5523 18.25 23.0001 17.8023 23.0001 17.25C23.0001 16.6977 22.5523 16.25 22.0001 16.25C21.4478 16.25 21.0001 16.6977 21.0001 17.25C21.0001 17.8023 21.4478 18.25 22.0001 18.25Z" fill="#7C8C9A"/>
<path d="M19.0001 17.25C19.0001 17.8023 18.5523 18.25 18.0001 18.25C17.4478 18.25 17.0001 17.8023 17.0001 17.25C17.0001 16.6977 17.4478 16.25 18.0001 16.25C18.5523 16.25 19.0001 16.6977 19.0001 17.25Z" fill="#7C8C9A"/>
<path d="M14.0001 18.25C14.5523 18.25 15.0001 17.8023 15.0001 17.25C15.0001 16.6977 14.5523 16.25 14.0001 16.25C13.4478 16.25 13.0001 16.6977 13.0001 17.25C13.0001 17.8023 13.4478 18.25 14.0001 18.25Z" fill="#7C8C9A"/>
<path d="M28.8691 10.8804C28.8691 11.4326 28.4219 11.8804 27.8691 11.8804C27.3164 11.8804 26.8691 11.4326 26.8691 10.8804C26.8691 9.1543 28.2734 7.75 30 7.75C31.7266 7.75 33.1309 9.1543 33.1309 10.8804C33.1309 12.0547 32.4824 13.1201 31.4394 13.6611C31.3359 13.7148 31 13.915 31 14.25C31 14.8022 30.5527 15.25 30 15.25C29.4473 15.25 29 14.8022 29 14.25C29 13.2622 29.5684 12.3784 30.5195 11.8853C30.8965 11.6899 31.1309 11.3047 31.1309 10.8804C31.1309 10.2568 30.624 9.75 30 9.75C29.376 9.75 28.8691 10.2568 28.8691 10.8804Z" fill="#7C8C9A"/>
<path fill-rule="evenodd" clip-rule="evenodd" d="M44.6133 22.3433L41 19.2227V11C41 10.4478 40.5527 10 40 10C39.4473 10 39 10.4478 39 11V30.1333L29.6478 35.2337L25.1211 30.707C23.9512 29.5371 22.0488 29.5371 20.8789 30.707L16.3522 35.2337L7 30.1333V19C7 17.0982 7.76483 15.3734 9 14.1105V21C9 21.5522 9.44727 22 10 22H20.5859L22.2929 23.707C22.6595 24.0736 23.3179 24.0961 23.707 23.707L25.4141 22H36C36.5527 22 37 21.5522 37 21V5C37 4.44775 36.5527 4 36 4H19.1105C20.3734 2.76477 22.0983 2 24 2H38C38.5518 2 39 2.44873 39 3V7C39 7.55225 39.4473 8 40 8C40.5527 8 41 7.55225 41 7V3C41 1.3457 39.6543 0 38 0H22C12.626 0 5 7.62598 5 17V19.2227L1.38672 22.3433C0.505859 23.1035 0 24.207 0 25.3701V46C0 48.2061 1.79395 50 4 50H13C13.5527 50 14 49.5527 14 49C14 48.4473 13.5527 48 13 48H6.41406L22.293 32.1211C22.6836 31.7305 23.3164 31.7305 23.707 32.1211L39.5859 48H17C16.4473 48 16 48.4473 16 49C16 49.5527 16.4473 50 17 50H42C44.2061 50 46 48.2061 46 46V25.3701C46 24.207 45.4941 23.1035 44.6133 22.3433ZM35 6V20H25C24.7344 20 24.4805 20.1055 24.293 20.293L23 21.5859L21.707 20.293C21.5195 20.1055 21.2656 20 21 20H11V12.6851C11.9108 12.2505 12.9255 12 14 12C15.6543 12 17 10.6543 17 9C17 7.92548 17.2506 6.91077 17.6851 6H35ZM17.6246 2.65479C16.0038 4.28326 15 6.52643 15 9C15 9.55127 14.5518 10 14 10C11.5262 10 9.2832 11.0039 7.65479 12.6247C9.10876 7.86713 12.8669 4.10876 17.6246 2.65479ZM2.69336 23.8569L5 21.8649V29.0426L2 27.4065V25.3701C2 24.7891 2.25293 24.2373 2.69336 23.8569ZM2 46V29.6843L14.8783 36.7076L3.62396 47.962C2.70087 47.7852 2 46.9738 2 46ZM41 21.8649L43.3066 23.8569C43.7471 24.2373 44 24.7891 44 25.3701V27.4065L41 29.0426V21.8649ZM42.376 47.962L31.1217 36.7076L44 29.6843V46C44 46.9738 43.2991 47.7852 42.376 47.962Z" fill="#7C8C9A"/>
</svg>
