<svg width="50" height="48" viewBox="0 0 50 48" fill="none" xmlns="http://www.w3.org/2000/svg">
<path d="M21 5C21 5.55228 20.5523 6 20 6C19.4477 6 19 5.55228 19 5C19 4.44771 19.4477 4 20 4C20.5523 4 21 4.44771 21 5Z" fill="#7C8C9A"/>
<path d="M25 5C25 5.55228 24.5523 6 24 6C23.4477 6 23 5.55228 23 5C23 4.44771 23.4477 4 24 4C24.5523 4 25 4.44771 25 5Z" fill="#7C8C9A"/>
<path d="M28 6C28.5523 6 29 5.55228 29 5C29 4.44771 28.5523 4 28 4C27.4477 4 27 4.44771 27 5C27 5.55228 27.4477 6 28 6Z" fill="#7C8C9A"/>
<path d="M32 6C32.5523 6 33 5.55228 33 5C33 4.44771 32.5523 4 32 4C31.4477 4 31 4.44771 31 5C31 5.55228 31.4477 6 32 6Z" fill="#7C8C9A"/>
<path fill-rule="evenodd" clip-rule="evenodd" d="M16.394 11.4189C16.0865 11.5511 15.7299 11.5201 15.4498 11.335C15.169 11.1499 15 10.8359 15 10.5V3C15 1.3457 16.3457 0 18 0H34C35.6543 0 37 1.3457 37 3V7C37 8.6543 35.6543 10 34 10H19.7051L16.394 11.4189ZM18 2C17.4487 2 17 2.44873 17 3V8.9834L19.106 8.08105C19.2305 8.02734 19.3647 8 19.5 8H34C34.5518 8 35 7.55127 35 7V3C35 2.44873 34.5518 2 34 2H18Z" fill="#7C8C9A"/>
<path d="M28 25C28 25.5523 27.5523 26 27 26C26.4477 26 26 25.5523 26 25C26 24.4477 26.4477 24 27 24C27.5523 24 28 24.4477 28 25Z" fill="#7C8C9A"/>
<path d="M45 16H31C30.4473 16 30 16.4478 30 17C30 17.5522 30.4473 18 31 18H45C45.5527 18 46 17.5522 46 17C46 16.4478 45.5527 16 45 16Z" fill="#7C8C9A"/>
<path d="M31 20H45C45.5527 20 46 20.4478 46 21C46 21.5522 45.5527 22 45 22H31C30.4473 22 30 21.5522 30 21C30 20.4478 30.4473 20 31 20Z" fill="#7C8C9A"/>
<path d="M41 24H31C30.4473 24 30 24.4478 30 25C30 25.5522 30.4473 26 31 26H41C41.5527 26 42 25.5522 42 25C42 24.4478 41.5527 24 41 24Z" fill="#7C8C9A"/>
<path d="M27 16C26.4473 16 26 16.4478 26 17V21.5C26 22.0522 26.4473 22.5 27 22.5C27.5527 22.5 28 22.0522 28 21.5V17C28 16.4478 27.5527 16 27 16Z" fill="#7C8C9A"/>
<path fill-rule="evenodd" clip-rule="evenodd" d="M25 12H47C48.6543 12 50 13.3457 50 15V27C50 28.6543 48.6543 30 47 30H34.4141L32.707 31.707C32.5117 31.9023 32.2559 32 32 32C31.7441 32 31.4883 31.9023 31.293 31.707L29.5859 30H25C23.3457 30 22 28.6543 22 27V15C22 13.3457 23.3457 12 25 12ZM47 28C47.5518 28 48 27.5513 48 27V15C48 14.4487 47.5518 14 47 14H25C24.4487 14 24 14.4487 24 15V27C24 27.5513 24.4487 28 25 28H30C30.2656 28 30.5195 28.1055 30.707 28.293L32 29.5859L33.293 28.293C33.4805 28.1055 33.7344 28 34 28H47Z" fill="#7C8C9A"/>
<path fill-rule="evenodd" clip-rule="evenodd" d="M29.6218 34.7071C31.1095 33.2185 33.4512 33.112 35.0687 34.46L38.5635 37.3721C40.3635 38.873 40.4925 41.6783 38.8341 43.3367L36.4132 45.7576C31.424 50.7463 20.0115 47.149 10.4315 37.5685C0.851016 27.9885 -2.74639 16.576 2.24244 11.5868L4.66328 9.16588C6.32173 7.50749 9.12696 7.63652 10.6279 9.43645L13.54 12.9313C14.8879 14.5487 14.7815 16.8906 13.2929 18.3782L11.4371 20.2345C10.8461 20.8249 10.7075 21.7148 11.0913 22.4483C12.5721 25.2775 14.6629 28.0519 17.3054 30.6946C19.9481 33.3372 22.7226 35.4279 25.5517 36.9087C26.2852 37.2925 27.1751 37.1538 27.7655 36.5629L29.6218 34.7071ZM9.09146 10.717C8.34091 9.81628 6.88047 9.7774 6.07767 10.5803L5.66733 10.9906L11.2057 17.6367L11.8786 16.9638C12.6307 16.2117 12.6844 15.0289 12.0036 14.2118L9.09146 10.717ZM11.8459 36.1541C20.3402 44.6485 30.9429 48.3987 34.9989 44.3433L35.5842 43.7579L28.9169 38.2019C27.7128 39.2125 26.0338 39.4186 24.6243 38.6815C21.6149 37.1065 18.6768 34.8951 15.8911 32.1089C13.1049 29.3232 10.8935 26.3851 9.31851 23.3757C8.58029 21.964 8.78805 20.282 9.80282 19.0776L4.24722 12.4107L3.65677 13.0012C-0.398713 17.0571 3.35154 27.6598 11.8459 36.1541ZM37.0044 42.3377L37.4198 41.9224C38.2226 41.1195 38.1837 39.6591 37.283 38.9086L33.7882 35.9964C32.9712 35.3155 31.7883 35.3693 31.0362 36.1214L30.3582 36.7994L37.0044 42.3377Z" fill="#7C8C9A"/>
</svg>
