<svg width="36" height="36" viewBox="0 0 36 36" fill="none" xmlns="http://www.w3.org/2000/svg">
<path fill-rule="evenodd" clip-rule="evenodd" d="M35.28 34.56H33.12V7.2C33.12 6.91198 32.9472 6.64558 32.6736 6.53757C32.4072 6.42239 32.0976 6.4872 31.8888 6.68878L27.5688 11.0088C27.4392 11.1456 27.36 11.3256 27.36 11.52V34.56H25.92V14.4C25.92 14.1336 25.776 13.8888 25.5384 13.7664C25.308 13.6368 25.02 13.6512 24.804 13.8024L23.04 14.976L21.276 13.8024C21.06 13.6512 20.772 13.6368 20.5416 13.7664C20.304 13.8888 20.16 14.1336 20.16 14.4V34.56H18.72V12.24C18.72 11.9592 18.5616 11.7072 18.3024 11.5848C18.0504 11.4696 17.7552 11.5056 17.5392 11.6856L13.2192 15.2856C13.0536 15.4224 12.96 15.624 12.96 15.84V34.56H11.52V18C11.52 17.7192 11.3616 17.4672 11.1024 17.3448C10.8504 17.2296 10.5552 17.2656 10.3392 17.4456L6.01919 21.0456C5.8536 21.1824 5.76 21.384 5.76 21.6V34.56H1.44V33.12H2.16C2.55599 33.12 2.88 32.796 2.88 32.4C2.88 32.004 2.55599 31.68 2.16 31.68H1.44V28.8H2.16C2.55599 28.8 2.88 28.476 2.88 28.08C2.88 27.684 2.55599 27.36 2.16 27.36H1.44V24.48H2.16C2.55599 24.48 2.88 24.156 2.88 23.76C2.88 23.364 2.55599 23.04 2.16 23.04H1.44V20.16H2.16C2.55599 20.16 2.88 19.836 2.88 19.44C2.88 19.044 2.55599 18.72 2.16 18.72H1.44V15.84H2.16C2.55599 15.84 2.88 15.516 2.88 15.12C2.88 14.724 2.55599 14.4 2.16 14.4H1.44V11.52H2.16C2.55599 11.52 2.88 11.196 2.88 10.8C2.88 10.404 2.55599 10.08 2.16 10.08H1.44V7.2H2.16C2.55599 7.2 2.88 6.87599 2.88 6.48C2.88 6.084 2.55599 5.76 2.16 5.76H1.44V2.88H2.16C2.55599 2.88 2.88 2.55599 2.88 2.16C2.88 1.76401 2.55599 1.44 2.16 1.44H1.44V0.72C1.44 0.324007 1.11599 0 0.72 0C0.324007 0 0 0.324007 0 0.72V35.28C0 35.676 0.324007 36 0.72 36H35.28C35.676 36 36 35.676 36 35.28C36 34.884 35.676 34.56 35.28 34.56ZM10.08 19.5336V34.56H7.20002V21.9384L10.08 19.5336ZM17.28 13.7736V34.56H14.4V16.1784L17.28 13.7736ZM24.48 34.56H21.6V15.7464L22.644 16.4376C22.8816 16.6032 23.1984 16.6032 23.436 16.4376L24.48 15.7464V34.56ZM31.68 34.56H28.8V11.8152L31.68 8.93517V34.56Z" fill="#7C8C9A"/>
<path d="M35.28 0H30.96C30.5624 0 30.24 0.322034 30.24 0.72C30.24 1.11796 30.5624 1.44 30.96 1.44H33.5418L23.0024 11.9791L18.4686 8.09367C18.2025 7.86446 17.8095 7.86234 17.5391 8.08664L4.57912 18.8866C4.27361 19.1412 4.23247 19.5954 4.48701 19.9012C4.62939 20.0721 4.834 20.16 5.04036 20.16C5.20279 20.16 5.36626 20.1052 5.50091 19.9933L17.9933 9.58289L22.5714 13.5063C22.8572 13.7517 23.2836 13.7355 23.5491 13.4691L34.56 2.45813V5.04C34.56 5.43797 34.8824 5.76 35.28 5.76C35.6776 5.76 36 5.43797 36 5.04V0.720006C36 0.322041 35.6776 0 35.28 0Z" fill="#7C8C9A"/>
<path fill-rule="evenodd" clip-rule="evenodd" d="M7.92002 4.32H5.04002C4.6424 4.32 4.32002 3.99796 4.32002 3.6V0.72C4.32002 0.322034 4.6424 0 5.04002 0H7.92002C8.31764 0 8.64002 0.322034 8.64002 0.72V3.6C8.64002 3.99796 8.31764 4.32 7.92002 4.32ZM7.20002 1.44H5.76002V2.88H7.20002V1.44Z" fill="#7C8C9A"/>
<path d="M10.8 1.44H20.88C21.2776 1.44 21.6 1.11796 21.6 0.72C21.6 0.322034 21.2776 0 20.88 0H10.8C10.4024 0 10.08 0.322034 10.08 0.72C10.08 1.11796 10.4024 1.44 10.8 1.44Z" fill="#7C8C9A"/>
<path d="M15.84 4.32H10.8C10.4024 4.32 10.08 3.99796 10.08 3.6C10.08 3.20203 10.4024 2.88 10.8 2.88H15.84C16.2376 2.88 16.56 3.20203 16.56 3.6C16.56 3.99796 16.2376 4.32 15.84 4.32Z" fill="#7C8C9A"/>
<path d="M5.04002 7.2H15.84C16.2376 7.2 16.56 6.87796 16.56 6.48C16.56 6.08203 16.2376 5.76 15.84 5.76H5.04002C4.6424 5.76 4.32002 6.08203 4.32002 6.48C4.32002 6.87796 4.6424 7.2 5.04002 7.2Z" fill="#7C8C9A"/>
<path d="M10.08 10.08H5.04002C4.6424 10.08 4.32002 9.75796 4.32002 9.35999C4.32002 8.96203 4.6424 8.63999 5.04002 8.63999H10.08C10.4776 8.63999 10.8 8.96203 10.8 9.35999C10.8 9.75796 10.4776 10.08 10.08 10.08Z" fill="#7C8C9A"/>
</svg>
