<svg width="184" height="26" viewBox="0 0 184 26" fill="none" xmlns="http://www.w3.org/2000/svg">
<g clip-path="url(#clip0_123_70116)">
<path fill-rule="evenodd" clip-rule="evenodd" d="M53.8499 4.34495V8.601H44.8432V11.4631H52.9885V15.4976H44.8432V20.3119C44.8432 21.0537 44.2423 21.6551 43.5011 21.6551H40V4.34495H53.8499ZM70.1413 4.34495V8.47796H61.0114V11.0197H69.2799V14.8573H61.0114V17.5222H70.2642V20.3119C70.2642 21.0537 69.6633 21.6551 68.9222 21.6551H56.2175V4.34495H70.1413ZM79.5815 4.34495C82.6678 4.34495 85.1054 5.23555 86.7719 6.74908C88.4399 8.26399 89.3362 10.4033 89.3362 12.9014V12.9506C89.3362 17.9445 85.7076 21.6551 79.4829 21.6551H72.9027V4.34495H79.5815ZM79.6551 17.3497C81.0728 17.3497 82.2525 16.9593 83.0775 16.2223C83.9013 15.4864 84.3703 14.405 84.3703 13.0248V12.9754C84.3703 11.6072 83.9013 10.5258 83.0775 9.78684C82.2525 9.04682 81.0728 8.65036 79.6551 8.65036H77.7456V17.3497H79.6551ZM91.409 13.0493V13.0001C91.409 7.95653 95.3606 4 100.721 4C103.758 4 105.906 4.93928 107.732 6.52089L107.758 6.54298L104.909 9.97008L104.882 9.94778C103.658 8.91867 102.435 8.3302 100.745 8.3302C98.2787 8.3302 96.3749 10.4092 96.3749 13.0247V13.0741C96.3749 15.8369 98.3044 17.8177 101.016 17.8177C102.156 17.8177 103.032 17.5772 103.738 17.1193V15.0789H100.342V11.5122H106.993C107.734 11.5122 108.335 12.1136 108.335 12.8555V19.3216L108.322 19.332C106.496 20.8389 103.954 22 100.82 22C95.4344 22 91.409 18.2907 91.409 13.0493ZM119.375 4.34495C122.02 4.34495 123.849 5.03947 125.01 6.22669C126.025 7.21824 126.546 8.55598 126.546 10.2661V10.3154C126.546 12.9504 125.152 14.7047 123.02 15.6259L127.143 21.6551H121.547L118.077 16.4336H116.038V20.3119C116.038 21.0537 115.437 21.6551 114.696 21.6551H111.195V4.34495H119.375ZM119.154 12.6205C120.754 12.6205 121.678 11.8484 121.678 10.611V10.5616C121.678 10.0293 121.525 9.60138 121.238 9.27977C120.806 8.79466 120.077 8.5519 119.129 8.5519H116.038V12.6205H119.154ZM128.569 13.0493V13.0001C128.569 8.03062 132.57 4 137.906 4C143.242 4 147.193 7.98111 147.193 12.9507V13.0001C147.193 17.9693 143.192 22 137.857 22C132.521 22 128.569 18.0186 128.569 13.0493ZM142.252 13.0493V13.0001C142.252 10.5313 140.47 8.37936 137.857 8.37936C135.268 8.37936 133.535 10.4824 133.535 12.9507V13.0001C133.535 15.4688 135.317 17.6206 137.906 17.6206C140.519 17.6206 142.252 15.5178 142.252 13.0493ZM149.659 14.0591V4.34481H154.576V13.9606C154.576 15.1938 154.885 16.1039 155.435 16.7051C155.982 17.3048 156.767 17.5959 157.717 17.5959C158.666 17.5959 159.451 17.317 159.999 16.7385C160.547 16.1588 160.856 15.2797 160.856 14.0837V4.34481H165.773V13.9358C165.773 16.7309 164.974 18.7401 163.563 20.0511C162.152 21.3618 160.126 21.9754 157.667 21.9754C155.208 21.9754 153.207 21.3495 151.82 20.048C150.433 18.7462 149.659 16.7678 149.659 14.0591ZM176.222 4.34488C178.848 4.34488 180.912 5.1574 182.144 6.63426C182.966 7.62015 183.418 8.90237 183.418 10.4385V10.4876C183.418 14.572 180.28 16.7291 175.976 16.7291H173.649V20.3118C173.649 21.0537 173.048 21.6551 172.306 21.6551H168.805V4.34488H176.222ZM175.878 12.916C177.552 12.916 178.575 12.0453 178.575 10.7092V10.66C178.575 10.0783 178.413 9.60483 178.109 9.24642C177.652 8.70663 176.875 8.42852 175.853 8.42852H173.649V12.916H175.878Z" fill="white"/>
<path d="M26 0V26H0V0H26ZM6.18262 14.6855V18.9531H19.8164V14.6855H6.18262ZM4.18848 7.04785V11.3154H21.8105V7.04785H4.18848Z" fill="white"/>
<path d="M6.18218 14.6851H19.8164V18.9526H6.18218V14.6851Z" fill="#E81F76"/>
<path d="M4.18822 7.04736H21.8105V11.3149H4.18822V7.04736Z" fill="#111C4D"/>
</g>
<defs>
<clipPath id="clip0_123_70116">
<rect width="183.5" height="26" fill="white"/>
</clipPath>
</defs>
</svg>
